<svg xmlns="http://www.w3.org/2000/svg" width="126.9" height="24.6" fill="#f44b00" xmlns:v="https://vecta.io/nano"><path d="M4 17.6c-1-.6-1.8-1.3-2.3-2.3-.6-1-.9-2.1-.9-3.3s.3-2.3.9-3.3C2.2 7.7 3 6.9 4 6.3s2-.8 3.2-.8 2.3.3 3.2.8c1 .6 1.8 1.3 2.3 2.3.6 1 .9 2.1.9 3.3s-.3 2.3-.9 3.3a6.34 6.34 0 0 1-2.3 2.3c-1 .6-2.1.8-3.2.8-1.2.1-2.2-.2-3.2-.7zm5.2-2c.6-.3 1-.8 1.4-1.5.3-.6.5-1.4.5-2.2s-.2-1.6-.5-2.2a3.16 3.16 0 0 0-1.4-1.4c-.6-.3-1.2-.5-2-.5s-1.4.2-2 .5-1 .8-1.4 1.4c-.3.6-.5 1.4-.5 2.2s.2 1.6.5 2.2.8 1.1 1.4 1.5c.6.3 1.3.5 2 .5.8 0 1.4-.1 2-.5zM18 4.9v13.3h-2.5V4.9H18zm2.5 5.7c.4-.8.9-1.4 1.6-1.8s1.5-.6 2.3-.6c.7 0 1.4.2 2 .4a3.61 3.61 0 0 1 1.3 1.1V8.3h2.5v10h-2.5v-1.5c-.3.5-.8.9-1.3 1.2-.6.3-1.2.5-2 .5s-1.6-.2-2.3-.6-1.2-1-1.6-1.8-.6-1.7-.6-2.7c0-1.2.2-2.1.6-2.8zm6.9 1.1a2.41 2.41 0 0 0-1-1c-.4-.2-.8-.4-1.3-.4s-.9.1-1.3.3-.7.6-1 1c-.2.4-.4 1-.4 1.6s.1 1.1.4 1.6a2.41 2.41 0 0 0 1 1c.4.2.8.4 1.3.4s.9-.1 1.3-.4a4.74 4.74 0 0 0 1-1c.2-.4.4-1 .4-1.6-.1-.5-.2-1.1-.4-1.5zm5.3-1.1c.4-.8 1-1.4 1.7-1.8s1.6-.6 2.6-.6c1.2 0 2.3.3 3.1.9a4.16 4.16 0 0 1 1.6 2.6H39c-.1-.4-.4-.8-.7-1s-.8-.4-1.3-.4c-.7 0-1.3.3-1.7.8s-.6 1.3-.6 2.2.2 1.7.6 2.2 1 .8 1.7.8c1 0 1.7-.5 2-1.4h2.7c-.3 1.1-.8 1.9-1.6 2.6-.8.6-1.8 1-3.1 1-1 0-1.8-.2-2.6-.6-.7-.4-1.3-1-1.7-1.8s-.6-1.7-.6-2.7c0-1.2.2-2.1.6-2.8zm10.8 0c.4-.8.9-1.4 1.6-1.8s1.5-.6 2.3-.6c.7 0 1.4.2 2 .4a3.61 3.61 0 0 1 1.3 1.1V8.3h2.5v10h-2.5v-1.5c-.3.5-.8.9-1.3 1.2-.6.3-1.2.5-2 .5s-1.6-.2-2.3-.6-1.2-1-1.6-1.8-.6-1.7-.6-2.7c0-1.2.2-2.1.6-2.8zm6.9 1.1a2.41 2.41 0 0 0-1-1c-.4-.2-.8-.4-1.3-.4s-.9.1-1.3.3-.7.6-1 1c-.2.4-.4 1-.4 1.6s.1 1.1.4 1.6a2.41 2.41 0 0 0 1 1c.4.2.8.4 1.3.4s.9-.1 1.3-.4a4.74 4.74 0 0 0 1-1c.2-.4.4-1 .4-1.6 0-.5-.2-1.1-.4-1.5zm7.9-6.8v13.3h-2.5V4.9h2.5zm2.5 5.7c.4-.8 1-1.4 1.7-1.8s1.6-.6 2.6-.6c1.2 0 2.3.3 3.1.9a4.16 4.16 0 0 1 1.6 2.6H67c-.1-.4-.4-.8-.7-1s-.8-.4-1.3-.4c-.7 0-1.3.3-1.7.8s-.6 1.3-.6 2.2.2 1.7.6 2.2 1 .8 1.7.8c1 0 1.7-.5 2-1.4h2.7c-.3 1.1-.8 1.9-1.6 2.6-.8.6-1.8 1-3.1 1-1 0-1.8-.2-2.6-.6-.7-.4-1.3-1-1.7-1.8s-.6-1.7-.6-2.7c0-1.2.2-2.1.7-2.8zM81 8.3v10h-2.5V17c-.3.4-.7.8-1.3 1s-1.1.4-1.7.4a4.65 4.65 0 0 1-2.1-.5 2.94 2.94 0 0 1-1.4-1.5c-.3-.6-.5-1.4-.5-2.3V8.3H74v5.5c0 .8.2 1.4.6 1.8s.9.6 1.6.6 1.2-.2 1.6-.6.6-1 .6-1.8V8.3H81zm5-3.4v13.3h-2.5V4.9H86zm2.5 5.7c.4-.8.9-1.4 1.6-1.8s1.5-.6 2.3-.6c.7 0 1.4.2 2 .4a3.61 3.61 0 0 1 1.3 1.1V8.3h2.5v10h-2.5v-1.5c-.3.5-.8.9-1.3 1.2-.6.3-1.2.5-2 .5s-1.6-.2-2.3-.6-1.2-1-1.6-1.8-.6-1.7-.6-2.7c0-1.2.2-2.1.6-2.8zm6.9 1.1a2.41 2.41 0 0 0-1-1c-.4-.2-.8-.4-1.3-.4s-.9.1-1.3.3-.7.6-1 1c-.2.4-.4 1-.4 1.6s.1 1.1.4 1.6a2.41 2.41 0 0 0 1 1c.4.2.8.4 1.3.4s.9-.1 1.3-.4c.4-.2.7-.6 1-1 .2-.4.4-1 .4-1.6-.1-.5-.2-1.1-.4-1.5zm8.2-1.3v4.8c0 .3.1.6.2.7s.4.2.8.2h1.2v2.1h-1.6c-2.1 0-3.2-1-3.2-3.1v-4.8h-1.2v-2h1.2V5.8h2.5v2.5h2.2v2.1h-2.1zm5.9 7.4c-.8-.4-1.4-1-1.8-1.8s-.7-1.7-.7-2.7.2-1.9.7-2.7 1.1-1.4 1.8-1.8 1.7-.6 2.6-.6 1.8.2 2.6.6 1.4 1 1.8 1.8c.5.8.7 1.7.7 2.7s-.2 1.9-.7 2.7-1.1 1.4-1.9 1.8-1.7.6-2.6.6c-.8 0-1.7-.2-2.5-.6zm3.9-1.9c.4-.2.7-.6 1-1 .2-.4.4-1 .4-1.6 0-.9-.2-1.7-.7-2.2s-1.1-.8-1.8-.8-1.3.3-1.8.8-.7 1.2-.7 2.2c0 .9.2 1.7.7 2.2s1.1.8 1.8.8c.3-.1.7-.2 1.1-.4zm9.6-7.3c.5-.3 1.1-.5 1.8-.5v2.6h-.7c-.8 0-1.4.2-1.8.6s-.6 1-.6 1.9v5h-2.5v-10h2.5v1.5a3.61 3.61 0 0 1 1.3-1.1z"/></svg>